<?xml version="1.0" encoding="utf-8"?>
<!-- Generator: Adobe Illustrator 17.0.2, SVG Export Plug-In . SVG Version: 6.00 Build 0)  -->
<!DOCTYPE svg PUBLIC "-//W3C//DTD SVG 1.1//EN" "http://www.w3.org/Graphics/SVG/1.1/DTD/svg11.dtd">
<svg version="1.1" id="Layer_1" xmlns="http://www.w3.org/2000/svg" xmlns:xlink="http://www.w3.org/1999/xlink" x="0px" y="0px"
	 width="27.056px" height="25px" viewBox="0 0 27.056 25" enable-background="new 0 0 27.056 25" xml:space="preserve">
<g id="_x37_3._Messages">
	<g>
		<path fill="#FFFFFF" d="M24.35,9.469h-1.353v2.714h1.353v6.753H12.175v-2.702H9.47v2.71c0,1.494,1.211,2.706,2.706,2.706h1.353
			v2.701c0,0.747,0.363,0.868,0.811,0.271l2.229-2.972h7.782c1.494,0,2.706-1.211,2.706-2.706v-6.767
			C27.056,10.68,25.845,9.469,24.35,9.469z M21.645,12.175v-9.47C21.645,1.211,20.433,0,18.939,0H2.706C1.211,0,0,1.211,0,2.705
			v9.47c0,1.495,1.211,2.706,2.706,2.706h1.353v4.058c0,0.747,0.363,0.868,0.811,0.271l3.247-4.329h10.823
			C20.433,14.88,21.645,13.669,21.645,12.175z M2.706,12.175v-9.47h16.234v9.47H2.706z"/>
	</g>
</g>
</svg>
