<?xml version="1.0" encoding="utf-8"?>
<!-- Generator: Adobe Illustrator 17.0.2, SVG Export Plug-In . SVG Version: 6.00 Build 0)  -->
<!DOCTYPE svg PUBLIC "-//W3C//DTD SVG 1.1//EN" "http://www.w3.org/Graphics/SVG/1.1/DTD/svg11.dtd">
<svg version="1.1" id="Layer_1" xmlns="http://www.w3.org/2000/svg" xmlns:xlink="http://www.w3.org/1999/xlink" x="0px" y="0px"
	 width="20px" height="22.041px" viewBox="0 0 20 22.041" enable-background="new 0 0 20 22.041" xml:space="preserve">
<path fill="#B1B5B9" d="M9.663,15.416H9.214v3.18h0.441c0.376,0,0.643-0.042,0.802-0.125c0.159-0.083,0.283-0.229,0.373-0.437
	c0.09-0.208,0.135-0.545,0.135-1.01c0-0.617-0.101-1.039-0.302-1.266C10.462,15.53,10.128,15.416,9.663,15.416z"/>
<path fill="#B1B5B9" d="M13.038-0.005L0-0.009v22.05h20V6.972L13.038-0.005z M12.764,1.953l5.204,5.046L12.75,6.984L12.764,1.953z
	 M6.052,17.262c-0.354,0.331-0.893,0.496-1.618,0.496H3.449v2.16H1.643v-5.82h2.989c0.651,0,1.139,0.155,1.463,0.465
	c0.324,0.31,0.486,0.75,0.486,1.322C6.582,16.472,6.405,16.932,6.052,17.262z M12.559,18.436c-0.141,0.343-0.338,0.63-0.589,0.861
	c-0.252,0.232-0.521,0.386-0.81,0.462c-0.394,0.106-0.752,0.159-1.072,0.159H7.416v-5.82h2.672c0.527,0,0.952,0.072,1.276,0.215
	c0.324,0.143,0.592,0.348,0.804,0.615c0.212,0.268,0.365,0.578,0.46,0.933c0.095,0.355,0.143,0.73,0.143,1.127
	C12.771,17.61,12.7,18.093,12.559,18.436z M18.203,15.349h-2.64v1.016h2.255v1.175h-2.255v2.378h-1.806v-5.82h4.446V15.349z"/>
<path fill="#B1B5B9" d="M3.962,15.281H3.449v1.298H3.89c0.347,0,0.59-0.06,0.73-0.181c0.14-0.12,0.21-0.275,0.21-0.462
	c0-0.183-0.061-0.337-0.182-0.465C4.526,15.345,4.298,15.281,3.962,15.281z"/>
</svg>
