<?xml version="1.0" encoding="utf-8"?>
<!-- Generator: Adobe Illustrator 17.0.2, SVG Export Plug-In . SVG Version: 6.00 Build 0)  -->
<!DOCTYPE svg PUBLIC "-//W3C//DTD SVG 1.1//EN" "http://www.w3.org/Graphics/SVG/1.1/DTD/svg11.dtd">
<svg version="1.1" id="Layer_1" xmlns="http://www.w3.org/2000/svg" xmlns:xlink="http://www.w3.org/1999/xlink" x="0px" y="0px"
	 width="70px" height="70px" viewBox="0 0 70 70" enable-background="new 0 0 70 70" xml:space="preserve">
<circle fill="#FFFFFF" cx="35" cy="35" r="32.5"/>
<g>
	<path fill="#FFFFFF" d="M35,67.5C17.08,67.5,2.5,52.92,2.5,35S17.08,2.5,35,2.5S67.5,17.079,67.5,35S52.92,67.5,35,67.5z"/>
	<path fill="#AAAAAA" d="M35,5c16.569,0,30,13.431,30,30S51.569,65,35,65S5,51.569,5,35S18.431,5,35,5 M35,0C15.701,0,0,15.701,0,35
		s15.701,35,35,35s35-15.701,35-35S54.299,0,35,0L35,0z"/>
</g>
</svg>
