<?xml version="1.0" encoding="utf-8"?>
<!-- Generator: Adobe Illustrator 17.0.2, SVG Export Plug-In . SVG Version: 6.00 Build 0)  -->
<!DOCTYPE svg PUBLIC "-//W3C//DTD SVG 1.1//EN" "http://www.w3.org/Graphics/SVG/1.1/DTD/svg11.dtd">
<svg version="1.1" id="Layer_1" xmlns="http://www.w3.org/2000/svg" xmlns:xlink="http://www.w3.org/1999/xlink" x="0px" y="0px"
	 width="30px" height="30px" viewBox="0 0 30 30" enable-background="new 0 0 30 30" xml:space="preserve">
<circle fill="#FFFFFF" cx="15" cy="15" r="13.929"/>
<g>
	<path fill="#FFFFFF" d="M15,28.928C7.32,28.928,1.071,22.68,1.071,15S7.32,1.071,15,1.071S28.929,7.319,28.929,15
		S22.68,28.928,15,28.928z"/>
	<path fill="#AAAAAA" d="M15,2.143c7.101,0,12.857,5.756,12.857,12.857S22.101,27.857,15,27.857C7.899,27.857,2.143,22.101,2.143,15
		S7.899,2.143,15,2.143 M15,0C6.729,0,0,6.729,0,15s6.729,15,15,15s15-6.729,15-15S23.271,0,15,0L15,0z"/>
</g>
</svg>
