<?xml version="1.0" encoding="utf-8"?>
<!-- Generator: Adobe Illustrator 17.0.2, SVG Export Plug-In . SVG Version: 6.00 Build 0)  -->
<!DOCTYPE svg PUBLIC "-//W3C//DTD SVG 1.1//EN" "http://www.w3.org/Graphics/SVG/1.1/DTD/svg11.dtd">
<svg version="1.1" id="Layer_1" xmlns="http://www.w3.org/2000/svg" xmlns:xlink="http://www.w3.org/1999/xlink" x="0px" y="0px"
	 width="70px" height="70px" viewBox="0 0 70 70" enable-background="new 0 0 70 70" xml:space="preserve">
<g>
	<circle fill="#FFFFFF" cx="35" cy="35" r="32.5"/>
	<g>
		<path fill="#FFFFFF" d="M35,67.5C17.079,67.5,2.5,52.921,2.5,35S17.079,2.5,35,2.5S67.5,17.079,67.5,35S52.92,67.5,35,67.5z"/>
		<g>
			<path fill="#6DE7A3" d="M35,5c16.569,0,30,13.431,30,30S51.569,65,35,65S5,51.569,5,35S18.431,5,35,5 M35,0
				C15.701,0,0,15.701,0,35s15.701,35,35,35s35-15.701,35-35S54.299,0,35,0L35,0z"/>
		</g>
	</g>
	<path fill="#6DE7A3" d="M48.387,22.207l5.952,5.952L36.483,45.996l-5.952,5.952l-5.933-5.952l-8.938-8.918l5.952-5.952l8.919,8.918
		L48.387,22.207z"/>
</g>
</svg>
